<?xml version="1.0" encoding="utf-8"?>
<!-- Generator: Adobe Illustrator 15.1.0, SVG Export Plug-In . SVG Version: 6.00 Build 0)  -->
<!DOCTYPE svg PUBLIC "-//W3C//DTD SVG 1.1//EN" "http://www.w3.org/Graphics/SVG/1.1/DTD/svg11.dtd">
<svg version="1.1" id="Layer_1" xmlns="http://www.w3.org/2000/svg" xmlns:xlink="http://www.w3.org/1999/xlink" x="0px" y="0px"
	 width="131.402px" height="43.073px" viewBox="0 0 131.402 43.073" enable-background="new 0 0 131.402 43.073"
	 xml:space="preserve">
<g>
	<path fill="#FFFFFF" d="M115.502,0.237c-6.625,0-11.312,3.027-15.898,9.907c-2.955-6.696-7.645-9.907-14.778-9.907
		c-6.217,0-10.498,2.293-14.574,8.072h-0.205V1.063h-4.891v0.14c-2.946-0.681-5.312-0.966-8.127-0.966
		c-13.045,0-22.22,9.081-22.22,22.012c0,12.476,8.968,20.824,22.423,20.824c4.28,0,7.542-0.552,12.739-2.11v-4.587
		c-5.096,1.835-8.153,2.386-12.331,2.386c-10.803,0-17.632-6.604-17.632-16.97c0-10.271,7.032-17.242,17.224-17.242
		c2.763,0,4.968,0.291,7.923,1.183v7.765h4.891v-0.144c4.281-6.328,8.154-8.804,13.761-8.804c6.419,0,12.024,4.036,12.024,14.216
		v23.48h4.894V14.181c4.587-6.881,8.255-9.632,13.861-9.632c8.05,0,11.924,6.053,11.924,14.308v23.389h4.893V16.932
		C131.402,6.842,125.083,0.237,115.502,0.237z"/>
	<path fill="#FFFFFF" d="M34.493,32.467C26.7,39.371,14.465,39.568,8.634,30.83l27.05-23.959c-9-10.161-20.892-7.729-28.227-1.231
		c-9.094,8.053-9.98,20.445-2.06,29.388c8.34,9.416,21.524,9.83,31.458,1.03c0.121-0.107,0.229-0.221,0.346-0.328
		c-0.829-1.182-1.539-2.46-2.103-3.841C34.894,32.081,34.706,32.278,34.493,32.467z M6.752,27.783
		c-3.621-6.707-2.127-13.951,3.526-18.958c5.884-5.211,12.132-5.548,18.71-0.737L6.752,27.783z"/>
</g>
</svg>
