<?xml version="1.0" encoding="utf-8"?>
<!-- Generator: Adobe Illustrator 15.1.0, SVG Export Plug-In . SVG Version: 6.00 Build 0)  -->
<!DOCTYPE svg PUBLIC "-//W3C//DTD SVG 1.1//EN" "http://www.w3.org/Graphics/SVG/1.1/DTD/svg11.dtd">
<svg version="1.1" id="Layer_1" xmlns="http://www.w3.org/2000/svg" xmlns:xlink="http://www.w3.org/1999/xlink" x="0px" y="0px"
	 width="131.402px" height="43.074px" viewBox="0 0 131.402 43.074" enable-background="new 0 0 131.402 43.074"
	 xml:space="preserve">
<g>
	<path fill="#6089A3" d="M115.502,0.237c-6.625,0-11.312,3.027-15.897,9.907c-2.955-6.696-7.646-9.907-14.778-9.907
		c-6.217,0-10.498,2.293-14.574,8.072h-0.205V1.063h-4.891v0.14c-2.946-0.681-5.312-0.966-8.127-0.966
		c-13.045,0-22.22,9.081-22.22,22.013c0,12.476,8.968,20.824,22.423,20.824c4.28,0,7.542-0.553,12.739-2.111v-4.586
		c-5.097,1.834-8.153,2.386-12.331,2.386c-10.804,0-17.633-6.604-17.633-16.97c0-10.271,7.032-17.242,17.225-17.242
		c2.763,0,4.968,0.291,7.923,1.183v7.765h4.891v-0.144C74.327,7.026,78.2,4.55,83.807,4.55c6.419,0,12.023,4.036,12.023,14.216
		v23.479h4.895V14.181c4.587-6.881,8.255-9.632,13.86-9.632c8.051,0,11.924,6.053,11.924,14.308v23.389h4.894V16.932
		C131.402,6.842,125.083,0.237,115.502,0.237z"/>
	<path fill="#6089A3" d="M34.493,32.466C26.7,39.371,14.465,39.568,8.634,30.83L35.684,6.871c-9-10.161-20.893-7.729-28.228-1.231
		c-9.094,8.053-9.979,20.445-2.06,29.388c8.34,9.416,21.523,9.83,31.458,1.03c0.121-0.107,0.229-0.221,0.346-0.328
		c-0.829-1.182-1.539-2.46-2.103-3.841C34.894,32.082,34.706,32.278,34.493,32.466z M6.752,27.783
		c-3.621-6.707-2.127-13.951,3.526-18.958c5.884-5.211,12.132-5.548,18.71-0.737L6.752,27.783z"/>
</g>
</svg>
