<?xml version="1.0" encoding="utf-8"?>
<!-- Generator: Adobe Illustrator 15.1.0, SVG Export Plug-In  -->
<!DOCTYPE svg PUBLIC "-//W3C//DTD SVG 1.1//EN" "http://www.w3.org/Graphics/SVG/1.1/DTD/svg11.dtd" [
	<!ENTITY ns_flows "http://ns.adobe.com/Flows/1.0/">
]>
<svg version="1.1"
	 xmlns="http://www.w3.org/2000/svg" xmlns:xlink="http://www.w3.org/1999/xlink" xmlns:a="http://ns.adobe.com/AdobeSVGViewerExtensions/3.0/"
	 x="0px" y="0px" width="191px" height="49px" viewBox="0 0 191 49" overflow="visible" enable-background="new 0 0 191 49"
	 xml:space="preserve">
<defs>
</defs>
<path fill="#80A1B6" d="M68.369,12.183c-3.922,0-6.696,1.792-9.412,5.864c-1.749-3.964-4.524-5.864-8.747-5.864
	c-3.68,0-6.214,1.357-8.627,4.778h-0.122v-4.289h-2.895v0.083c-1.744-0.403-3.144-0.572-4.81-0.572
	c-7.722,0-13.153,5.376-13.153,13.03c0,7.385,5.309,12.325,13.273,12.325c2.533,0,4.464-0.325,7.54-1.248v-2.716
	c-3.016,1.087-4.826,1.412-7.299,1.412c-6.395,0-10.437-3.909-10.437-10.045c0-6.08,4.163-10.206,10.196-10.206
	c1.635,0,2.94,0.172,4.689,0.7v4.597h2.895v-0.086c2.534-3.745,4.827-5.211,8.146-5.211c3.799,0,7.118,2.389,7.118,8.415V37.05
	h2.896V20.437c2.715-4.073,4.886-5.701,8.205-5.701c4.765,0,7.058,3.583,7.058,8.469V37.05h2.896V22.064
	C77.781,16.093,74.04,12.183,68.369,12.183z"/>
<path fill="#80A1B6" d="M20.417,31.262c-4.613,4.085-11.854,4.202-15.306-0.97l16.012-14.183
	c-5.328-6.014-12.366-4.575-16.708-0.729c-5.383,4.767-5.908,12.103-1.22,17.395c4.937,5.575,12.741,5.819,18.621,0.611
	c0.071-0.064,0.135-0.131,0.205-0.195c-0.491-0.698-0.911-1.455-1.246-2.273C20.654,31.032,20.543,31.149,20.417,31.262z
	 M3.997,28.488c-2.143-3.971-1.259-8.258,2.087-11.223c3.483-3.085,7.181-3.284,11.076-0.437L3.997,28.488z"/>
<path fill="#9B8579" d="M123.904,31.262c-4.613,4.085-11.854,4.202-15.307-0.97l16.012-14.183
	c-5.328-6.014-12.367-4.575-16.708-0.729c-5.384,4.767-5.908,12.103-1.22,17.395c4.937,5.575,12.741,5.819,18.621,0.611
	c0.072-0.064,0.135-0.131,0.205-0.195c-0.491-0.698-0.912-1.455-1.246-2.273C124.141,31.032,124.03,31.149,123.904,31.262z
	 M107.483,28.488c-2.144-3.97-1.259-8.258,2.087-11.223c3.483-3.085,7.181-3.284,11.075-0.437L107.483,28.488z"/>
<path fill="#9B8579" d="M101.666,36.791h-2.59v-1.888c-2.589,1.78-4.423,2.374-7.174,2.374c-6.905,0-12.246-5.503-12.246-12.624
	c0-7.228,5.179-12.569,12.246-12.569c2.481,0,4.208,0.485,7.174,1.942V0h2.59V36.791z M99.076,16.886
	c-2.643-1.673-4.531-2.267-7.066-2.267c-5.61,0-9.603,4.1-9.603,9.872c0,5.881,4.316,10.25,10.142,10.25
	c2.427,0,4.046-0.539,6.527-2.211V16.886z"/>
<path fill="#9B8579" d="M141.323,16.939c-2.697-1.78-4.478-2.481-6.635-2.481c-2.913,0-5.179,1.78-5.179,4.1
	c0,5.826,12.57,3.614,12.57,12.029c0,3.777-3.452,6.69-7.93,6.69c-2.481,0-4.801-0.702-7.283-2.212V32.53
	c3.183,1.618,5.287,2.211,7.607,2.211c2.967,0,5.125-1.727,5.125-4.208c0-5.771-12.57-4.045-12.57-11.814
	c0-3.722,3.453-6.635,7.823-6.635c2.104,0,4.046,0.647,6.473,2.051V16.939z"/>
<path fill="#9B8579" d="M147.351,4.424h-2.589V0h2.589V4.424z M147.351,36.791h-2.589V12.569h2.589V36.791z"/>
<path fill="#9B8579" d="M181.584,12.084c-3.507,0-5.718,1.295-7.983,4.693h-0.109v-4.208h-0.211h-2.377h-11.442
	c-7.769,0-10.304,4.586-10.304,8.631c0,2.915,1.619,6.636,6.474,8.039v0.107c-2.86,0.863-4.855,1.78-4.855,3.938
	c0,1.673,1.348,2.859,3.938,3.453v0.108c-4.532,0.701-7.067,2.805-7.067,5.879c0,3.453,3.183,6.475,10.627,6.475
	c6.798,0,10.843-2.644,10.843-7.067c0-10.25-15.86-3.775-15.86-9.062c0-4.693,13.756-1.133,13.756-11.976
	c0-2.428-1.024-4.263-3.345-6.419h7.235v22.116h2.588V19.798c2.159-3.506,4.424-5.179,7.931-5.179c4.263,0,6.581,2.913,6.581,8.362
	v13.81h2.591v-14.78C190.594,15.482,186.763,12.084,181.584,12.084z M166.635,42.348c0,2.859-3.236,4.693-8.2,4.693
	c-5.34,0-8.308-1.618-8.308-4.478c0-4.046,5.772-4.477,8.793-4.477C163.29,38.087,166.635,38.949,166.635,42.348z M164.531,21.146
	c0,3.562-2.914,6.474-6.474,6.474c-3.668,0-6.42-2.967-6.42-6.581c0-3.507,2.752-6.312,6.366-6.312
	C161.618,14.728,164.531,17.587,164.531,21.146z"/>
</svg>
